<?xml version="1.0" encoding="UTF-8" standalone="no"?>
<!-- Created with Inkscape (http://www.inkscape.org/) -->

<svg
   xmlns:dc="http://purl.org/dc/elements/1.1/"
   xmlns:cc="http://creativecommons.org/ns#"
   xmlns:rdf="http://www.w3.org/1999/02/22-rdf-syntax-ns#"
   xmlns:svg="http://www.w3.org/2000/svg"
   xmlns="http://www.w3.org/2000/svg"
   xmlns:sodipodi="http://sodipodi.sourceforge.net/DTD/sodipodi-0.dtd"
   xmlns:inkscape="http://www.inkscape.org/namespaces/inkscape"
   width="210"
   height="70"
   viewBox="0 0 55.562499 18.520834"
   version="1.1"
   id="svg8"
   inkscape:version="0.92.4 (5da689c313, 2019-01-14)"
   sodipodi:docname="logo.svg">
  <defs
     id="defs2" />
  <sodipodi:namedview
     id="base"
     pagecolor="#ffffff"
     bordercolor="#666666"
     borderopacity="1.0"
     inkscape:pageopacity="0.0"
     inkscape:pageshadow="2"
     inkscape:zoom="2.8"
     inkscape:cx="96.930292"
     inkscape:cy="18.324571"
     inkscape:document-units="mm"
     inkscape:current-layer="layer1"
     showgrid="false"
     units="px"
     inkscape:window-width="1920"
     inkscape:window-height="1027"
     inkscape:window-x="0"
     inkscape:window-y="25"
     inkscape:window-maximized="1" />
  <metadata
     id="metadata5">
    <rdf:RDF>
      <cc:Work
         rdf:about="">
        <dc:format>image/svg+xml</dc:format>
        <dc:type
           rdf:resource="http://purl.org/dc/dcmitype/StillImage" />
        <dc:title></dc:title>
      </cc:Work>
    </rdf:RDF>
  </metadata>
  <g
     inkscape:label="Layer 1"
     inkscape:groupmode="layer"
     id="layer1"
     transform="translate(0,-278.47915)">
    <g
       id="g78"
       transform="matrix(0.15570097,0,0,0.15591519,38.876805,277.7017)"
       style="stroke-width:1.69813645">
      <path
         id="path64"
         style="fill:#ff3e00;stroke-width:1.69813645"
         d="M 94.1566,22.8189 C 83.7566,7.9338 63.2166,3.5218 48.3652,12.9841 L 22.2825,29.6078 A 29.9234,29.9234 0 0 0 8.7639,49.6506 31.5136,31.5136 0 0 0 11.8715,69.8824 30.0061,30.0061 0 0 0 7.3953,81.0653 31.8886,31.8886 0 0 0 12.8426,105.181 c 10.4022,14.8865 30.9423,19.2966 45.7914,9.8348 L 84.7167,98.3921 A 29.9177,29.9177 0 0 0 98.2353,78.3493 31.5263,31.5263 0 0 0 95.13,58.117 30,30 0 0 0 99.6043,46.9346 31.88,31.88 0 0 0 94.157,22.8189"
         inkscape:connector-curvature="0" />
      <path
         id="path66"
         style="fill:#ffffff;stroke-width:1.69813645"
         d="M 45.8171,106.5815 A 20.7182,20.7182 0 0 1 23.58,98.3389 19.1739,19.1739 0 0 1 20.3034,83.8364 18.1886,18.1886 0 0 1 20.9267,81.4007 l 0.4912,-1.4978 1.3363,0.9815 a 33.6443,33.6443 0 0 0 10.203,5.0978 l 0.9694,0.2941 -0.0893,0.9675 a 5.8474,5.8474 0 0 0 1.052,3.8781 6.2389,6.2389 0 0 0 6.6952,2.485 5.7449,5.7449 0 0 0 1.6021,-0.7041 L 69.27,76.281 a 5.4306,5.4306 0 0 0 2.4506,-3.631 5.7948,5.7948 0 0 0 -0.9875,-4.3712 6.2436,6.2436 0 0 0 -6.6978,-2.4864 5.7427,5.7427 0 0 0 -1.6,0.7036 l -9.9532,6.3449 a 19.0329,19.0329 0 0 1 -5.2965,2.3259 20.7181,20.7181 0 0 1 -22.2368,-8.2427 19.1725,19.1725 0 0 1 -3.2766,-14.5024 17.9885,17.9885 0 0 1 8.13,-12.0513 L 55.8833,23.7472 a 19.0038,19.0038 0 0 1 5.3,-2.3287 20.7182,20.7182 0 0 1 22.2367,8.2426 19.1739,19.1739 0 0 1 3.2766,14.5025 18.4,18.4 0 0 1 -0.6233,2.4357 l -0.4912,1.4978 -1.3356,-0.98 a 33.6175,33.6175 0 0 0 -10.2037,-5.1 l -0.9694,-0.2942 0.0893,-0.9675 a 5.8588,5.8588 0 0 0 -1.052,-3.878 6.2389,6.2389 0 0 0 -6.6952,-2.485 5.7449,5.7449 0 0 0 -1.6021,0.7041 L 37.73,51.719 a 5.4218,5.4218 0 0 0 -2.4487,3.63 5.7862,5.7862 0 0 0 0.9856,4.3717 6.2437,6.2437 0 0 0 6.6978,2.4864 5.7652,5.7652 0 0 0 1.602,-0.7041 l 9.9519,-6.3425 a 18.978,18.978 0 0 1 5.2959,-2.3278 20.7181,20.7181 0 0 1 22.2368,8.2427 19.1725,19.1725 0 0 1 3.2766,14.5024 17.9977,17.9977 0 0 1 -8.13,12.0532 l -26.0812,16.6218 a 19.0038,19.0038 0 0 1 -5.3,2.3287"
         inkscape:connector-curvature="0" />
    </g>
    <text
       xml:space="preserve"
       style="font-style:normal;font-weight:normal;font-size:5.05589104px;line-height:1.25;font-family:sans-serif;text-align:end;letter-spacing:0px;word-spacing:0px;text-anchor:end;fill:#000000;fill-opacity:1;stroke:none;stroke-width:0.26458332"
       x="36.868675"
       y="282.59622"
       id="text82"
       transform="scale(0.99931278,1.0006877)"><tspan
         sodipodi:role="line"
         id="tspan80"
         x="36.868675"
         y="282.59622"
         style="font-style:normal;font-variant:normal;font-weight:normal;font-stretch:normal;font-family:'Overpass Semibold Cyr';-inkscape-font-specification:'Overpass Semibold Cyr';stroke-width:0.26458332">SVELTE</tspan></text>
    <text
       id="text86"
       y="295.07199"
       x="69.560493"
       style="font-style:normal;font-weight:normal;font-size:20.86824799px;line-height:1.25;font-family:sans-serif;text-align:end;letter-spacing:0px;word-spacing:0px;text-anchor:end;fill:#000000;fill-opacity:1;stroke:none;stroke-width:0.26458332"
       xml:space="preserve"
       transform="matrix(0.99931278,0,-0.10936033,1.0006877,0,0)"><tspan
         style="font-style:normal;font-variant:normal;font-weight:normal;font-stretch:normal;font-family:'Overpass Semibold Cyr';-inkscape-font-specification:'Overpass Semibold Cyr';stroke-width:0.26458332"
         y="295.07199"
         x="69.560493"
         id="tspan84"
         sodipodi:role="line"><tspan
   style="font-size:22.7641983px;stroke-width:0.26458332"
   id="tspan901">D</tspan>oc</tspan></text>
  </g>
</svg>
